<svg xmlns="http://www.w3.org/2000/svg" fill="none" width="116" height="38" viewBox="0 0 116 38"><path data-testid="path" d="M11.9277 38H9.1596v-7.0191h-.04776c-.71587 1.1068-2.12385 1.7996-3.66696 1.7996C2.07615 32.7805 0 30.1011 0 26.8682c0-3.2805 2.21529-5.8206 5.37323-5.8206 2.02839 0 3.27728.9914 3.83012 1.8712h.06757v-1.5487h2.65278V38h.004Zm-5.92604-7.5287c2.02839 0 3.25334-1.8234 3.25334-3.5552 0-1.7319-1.22101-3.6031-3.25334-3.6031-2.14371 0-3.18182 1.8234-3.18182 3.5552-.00395 1.7319 1.03409 3.6031 3.18182 3.6031ZM24.3604 32.458h-2.6289v-1.7797h-.0478c-.4852 1.1068-1.7976 2.1022-3.4363 2.1022-2.8834 0-4.0846-2.2176-4.0846-4.479V21.374h2.7682v6.1432c0 1.3178.2983 2.9541 2.0761 2.9541 1.7539 0 2.5852-1.5248 2.5852-3.0019V21.374h2.7681v11.084ZM27.1365 21.1313h2.7682v11.084h-2.7682v-11.084ZM40.2617 24.4438c-.4375-.625-1.3841-1.0868-2.2832-1.0868-2.0283 0-3.0465 1.8234-3.0465 3.5552 0 1.7319 1.0383 3.5554 3.1382 3.5554.8549 0 1.7975-.3464 2.3307-.9914l1.7299 1.7558c-.9232.9913-2.4464 1.5487-4.0847 1.5487-3.2773 0-5.998-2.1698-5.998-5.8644 0-3.6031 2.6772-5.8645 5.9304-5.8645 1.6149 0 3.2974.645 4.1757 1.7318l-1.8925 1.6602ZM43.5149 15h2.7682v11.0362h.0675l4.1998-4.6661h3.5516l-4.7965 5.0124 5.0989 6.0715h-3.6666l-4.3831-5.6813h-.0676v5.6813h-2.7682V15h-.004ZM58.4377 15v7.7834h.0676c.5767-.7166 1.6825-1.7319 3.7148-1.7319 3.1615 0 5.3732 2.5401 5.3732 5.8207 0 3.2329-2.0765 5.9123-5.4448 5.9123-1.5473 0-3.0472-.7167-3.8064-1.9867h-.0475v1.6642h-2.6291V15h2.7722Zm3.1616 8.313c-2.0283 0-3.2532 1.8712-3.2532 3.603 0 1.7319 1.2209 3.5553 3.2532 3.5553 2.144 0 3.1816-1.8712 3.1816-3.6031 0-1.7318-1.0376-3.5552-3.1816-3.5552ZM74.8156 21.0518c3.3448 0 6.022 2.333 6.022 5.8207 0 3.4876-2.6772 5.9122-6.022 5.9122-3.3449 0-6.0214-2.4246-6.0214-5.9122 0-3.4877 2.6765-5.8207 6.0214-5.8207Zm0 9.4197c2.1915 0 3.2057-1.8712 3.2057-3.603 0-1.7319-1.0142-3.5553-3.2057-3.5553-2.1916 0-3.2057 1.8234-3.2057 3.5553 0 1.7318 1.0141 3.603 3.2057 3.603ZM88.0595 21.0518c3.3448 0 6.0214 2.333 6.0214 5.8207 0 3.4876-2.6766 5.9122-6.0214 5.9122-3.3449 0-6.0214-2.4246-6.0214-5.9122 0-3.4877 2.6765-5.8207 6.0214-5.8207Zm0 9.4197c2.1915 0 3.2057-1.8712 3.2057-3.603 0-1.7319-1.0142-3.5553-3.2057-3.5553-2.1916 0-3.2057 1.8234-3.2057 3.5553-.004 1.7318 1.0141 3.603 3.2057 3.603ZM95.7634 15h2.7682v11.0362h.0676l4.2008-4.6661h3.551l-4.796 5.0124 5.099 6.0715h-3.668l-4.3828-5.6813h-.0676v5.6813h-2.7682V15h-.004ZM114.206 24.3282c-.485-.645-1.408-1.2024-2.422-1.2024-.875 0-1.778.3225-1.778 1.2024 0 .856.856 1.0869 2.398 1.4532 1.639.3941 3.576 1.1306 3.576 3.3005 0 2.7033-2.192 3.6946-4.613 3.6946-1.707 0-3.484-.645-4.547-1.8234l1.822-1.708c.601.7843 1.639 1.3855 2.836 1.3855.807 0 1.778-.3225 1.778-1.3178 0-.9237-.856-1.2023-2.538-1.5925-1.639-.3942-3.277-1.0631-3.277-3.1413 0-2.4723 2.215-3.5314 4.407-3.5314 1.59 0 3.253.5534 4.152 1.6841l-1.794 1.5965ZM30.0157 6.27187C30.0157 9.0035 32.2131 11 35.0059 11 37.7986 11 40 9.00741 40 6.27187V0h-2.7071v5.95077c0 1.47411-.9917 2.46077-2.2949 2.46077-1.307 0-2.2949-.98666-2.2949-2.46077V0H30l.0157 6.27187ZM48 2.56942h3.1736V11h2.6573V2.56942H57V0h-9v2.56942ZM46 0h-3v11h3V0ZM19 2.56942h3.1733V11h2.6571V2.56942H28V0h-9v2.56942ZM5 0H2v11h3V0ZM16.9922 4.7281C16.9922 1.99648 14.7899 0 11.9961 0 9.20231 0 7 1.99261 7 4.7281V11h2.70429V5.04925c0-1.47416.99221-2.46079 2.29571-2.46079s2.2957.98663 2.2957 2.46079V11H17l-.0078-6.2719Z" fill="white"/></svg>
